# xmcd
#
# Track frame offsets: 
#        150
#        11004
#        26741
#        36176
#        47871
#        59688
#
# Disc length: 1013 seconds
#
# Revision: 0
# Processed by: cddbd v1.5.2PL0 Copyright (c) Steve Scherf et al.
# Submitted via: ExactAudioCopy v0.99pb4
#
DISCID=4f03f306
DTITLE=Doctor's order - Cutthroat and dangerous
DYEAR=2006
DGENRE=
TTITLE0=Domino
TTITLE1=The wildest beast on six feet
TTITLE2=Weekend
TTITLE3=Big bad doc
TTITLE4=Drinkin' wine spo-dee-o-dee
TTITLE5=Baby elephant walk
EXTD=
EXTT0=
EXTT1=
EXTT2=
EXTT3=
EXTT4=
EXTT5=
PLAYORDER=
